<svg t="1782890643403" class="icon" viewBox="0 0 1024 1024" version="1.1" xmlns="http://www.w3.org/2000/svg" p-id="14349" id="mx_n_1782890643404" width="200" height="200"><path d="M712.064 46.357333a10.666667 10.666667 0 0 0-10.154667-3.477333c-64.085333 12.8-106.986667 51.498667-134.592 95.210667l-44.842666-26.901334a53.333333 53.333333 0 1 0-6.336 21.077334l40.533333 24.32c-2.218667 4.245333-4.330667 8.512-6.314667 12.8a101.013333 101.013333 0 0 0-33.749333-0.341334c-6.336 1.045333-12.522667 2.773333-17.664 5.397334-4.778667 2.453333-10.624 6.72-12.650667 13.781333-1.706667 6.016-0.426667 12.288 1.450667 17.322667 1.984 5.333333 5.162667 10.752 9.088 15.765333 7.082667 9.045333 17.493333 17.898667 29.952 22.421333-0.896 4.8-1.642667 9.472-2.24 13.930667l-23.488-29.632a10.666667 10.666667 0 0 0-15.061333-1.664l-99.904 80.746667-6.421334-13.354667a10.666667 10.666667 0 0 0-15.573333-4.202667c-5.354667 3.605333-10.645333 7.466667-15.829333 11.541334a113.429333 113.429333 0 0 0-18.986667-36.992l10.24-41.962667a42.666667 42.666667 0 1 0-18.986667-12.032 10.645333 10.645333 0 0 0-0.213333 0.704l-8.426667 34.602667a157.056 157.056 0 0 0-10.517333-8.618667 196.949333 196.949333 0 0 0-75.285333-33.92 10.730667 10.730667 0 0 0-2.090667-0.213333 64 64 0 1 0-38.4 58.666666 32 32 0 0 0 16.853333 46.08 204.757333 204.757333 0 0 0-15.253333 17.066667c-39.082667-29.226667-88.618667-35.584-119.381333-37.205333a10.666667 10.666667 0 0 0-11.221334 10.069333c-1.578667 29.568-0.682667 76.714667 21.397334 117.546667-8.874667 7.04-16.405333 14.122667-22.442667 20.138666a10.666667 10.666667 0 0 0 0 15.104c12.672 12.672 32.021333 29.930667 56.32 42.026667a10.645333 10.645333 0 0 0-0.938667 17.706667l156.288 117.205333C243.477333 644.821333 234.666667 666.474667 234.666667 682.666667c0 18.986667 9.28 46.122667 33.28 65.6 11.946667 9.728 27.178667 17.28 46.186666 21.12l-56.106666 77.696a10.666667 10.666667 0 0 0 3.861333 15.786666l128 64a10.666667 10.666667 0 0 0 9.877333-0.170666l106.88-58.282667 16.106667 124.949333a10.666667 10.666667 0 0 0 14.997333 8.341334l234.666667-106.666667a10.666667 10.666667 0 0 0 4.010667-16.256l-89.557334-115.136a99.626667 99.626667 0 0 0 26.517334-15.36C737.386667 728.789333 746.666667 701.653333 746.666667 682.666667c0-6.314667-1.344-13.44-4.373334-20.842667l157.205334-54.4a10.666667 10.666667 0 0 0 3.370666-18.24l-62.165333-52.373333a136.106667 136.106667 0 0 0 8.192-4.437334 10.752 10.752 0 0 0 2.346667 0.746667l46.037333 9.216a32 32 0 1 0 1.258667-21.504l-26.325334-5.269333c20.138667-17.322667 37.12-39.530667 51.029334-62.272 23.893333-39.146667 39.744-81.706667 47.061333-109.226667a10.666667 10.666667 0 0 0-7.616-13.056c-64.106667-16.618667-116.394667-24.96-158.741333-27.584 6.421333-15.914667 8.661333-33.152 7.850666-50.837333l38.058667-52.330667a42.666667 42.666667 0 1 0-17.706667-11.904l-24.490666 33.642667a287.232 287.232 0 0 0-17.877334-53.738667c-21.44-48.96-54.101333-94.656-77.717333-121.898667z m-419.413333 589.717334c14.314667-7.68 33.962667-14.144 60.672-17.493334 40.32-5.034667 74.944 8.426667 99.029333 23.936-21.824-3.626667-45.525333-6.144-66.453333-5.717333-17.429333 0.362667-34.453333 2.794667-46.933334 9.557333-6.4 3.477333-12.074667 8.362667-15.637333 15.146667-3.626667 6.826667-4.565333 14.613333-3.2 22.912 1.408 8.32 4.821333 15.36 10.346667 20.8 5.418667 5.354667 12.245333 8.490667 19.413333 10.112 13.994667 3.2 31.061333 1.109333 47.893333-3.114667 24.277333-6.058667 50.986667-17.28 73.472-28.458666-11.733333 22.784-37.034667 52.650667-89.344 63.125333-51.029333 10.197333-82.24-0.298667-100.522666-15.146667-18.666667-15.189333-25.386667-36.053333-25.386667-49.066666 0-9.152 6.421333-29.141333 33.472-44.821334a10.624 10.624 0 0 0 3.157333-1.770666z m215.253333 43.221333c24.938667 9.002667 55.445333 18.538667 82.816 23.957333 17.792 3.541333 35.093333 5.525333 48.938667 4.096 13.141333-1.365333 28.138667-6.549333 32.021333-22.101333a22.549333 22.549333 0 0 0-4.522667-20.373333c-4.224-5.141333-10.368-8.533333-16.576-10.901334-12.501333-4.778667-29.802667-7.104-48.149333-8.106666-25.514667-1.365333-55.04-0.234667-80.917333 1.770666 24.106667-17.493333 61.781333-34.645333 106.496-29.056C710.101333 628.842667 725.333333 668.586667 725.333333 682.666667c0 13.013333-6.72 33.877333-25.386666 49.066666-18.282667 14.848-49.493333 25.344-100.522667 15.146667-55.808-11.157333-80.853333-44.394667-91.52-67.584zM154.346667 515.754667l367.210666 36.714666-34.837333 89.557334c-25.621333-23.189333-74.816-52.266667-136.042667-44.608-26.410667 3.306667-47.36 9.664-63.786666 17.728l-132.544-99.392zM386.090667 767.786667c53.269333-10.666667 82.688-39.146667 98.517333-64.469334l16 144.085334-106.154667 57.898666-111.786666-55.893333 55.765333-77.226667a208.704 208.704 0 0 0 47.658667-4.394666z m209.152 0c27.178667 5.44 50.197333 5.632 69.461333 2.112l86.570667 111.317333-209.216 95.104-33.066667-256.362667c17.365333 20.16 44.48 39.466667 86.250667 47.829334z m-41.536-219.370667a10.666667 10.666667 0 0 0-2.794667-12.544L573.44 477.866667l91.136-30.378667 0.213333-0.064 26.24-8.746667 183.722667 154.730667-143.722667 49.728c-16.469333-20.224-47.573333-39.104-100.394666-45.717333-45.013333-5.632-83.498667 8.597333-110.912 25.728l33.962666-74.730667zM917.333333 533.546667v-0.426667a10.666667 10.666667 0 1 1 0 0.426667zM520.064 190.08c6.762667-1.088 14.506667-1.28 21.824-0.426667-4.245333 11.221333-7.68 22.314667-10.432 32.96a49.898667 49.898667 0 0 1-17.834667-14.464 39.125333 39.125333 0 0 1-5.888-10.026666 13.546667 13.546667 0 0 1-0.896-3.562667 11.328 11.328 0 0 1 1.834667-1.130667c2.538667-1.28 6.4-2.517333 11.392-3.328z m250.176-13.269333c10.453333 23.893333 17.621333 47.573333 19.733333 69.504l-41.258666 56.746666-0.128 0.149334-0.170667 0.277333c-10.453333 0.768-20.032 2.005333-28.757333 3.626667-31.018667 5.717333-52.522667 16.533333-65.408 29.333333l19.584-91.392c8.533333-0.533333 19.413333-1.792 30.869333-4.224 15.765333-3.328 33.493333-9.024 47.872-18.624a10.666667 10.666667 0 0 0-11.818667-17.749333c-11.221333 7.466667-25.984 12.437333-40.469333 15.509333-7.850667 1.664-15.36 2.709333-21.802667 3.328l31.317334-146.090667c20.373333 26.154667 43.989333 62.037333 60.437333 99.605334z m16.96 109.610666l-11.733333 16.106667c1.792 0 3.584 0 5.397333 0.042667 2.688-5.12 4.778667-10.517333 6.336-16.149334zM633.813333 329.813333a365.781333 365.781333 0 0 0-35.712-39.210666 10.666667 10.666667 0 0 0-14.528-0.106667l-19.114666 17.536-21.226667-26.794667a10.624 10.624 0 0 0 0.725333-3.328c1.706667-30.613333 11.989333-78.506667 37.226667-121.6 22.805333-38.954667 57.472-73.536 108.8-88.576l-20.053333 93.568-20.544-38.357333a10.666667 10.666667 0 0 0-18.816 10.069333l32.426666 60.565334-29.184 136.234666zM864 138.666667a21.333333 21.333333 0 1 1 0 42.666666 21.333333 21.333333 0 0 1 0-42.666666z m-704 21.333333a42.666667 42.666667 0 1 1 0 85.333333 42.666667 42.666667 0 0 1 0-85.333333z m47.146667 85.930667c5.909333-6.442667 10.517333-14.08 13.418666-22.506667 0.426667 0.149333 0.874667 0.277333 1.344 0.362667a176.128 176.128 0 0 1 50.666667 19.562666l-31.445333 13.525334a10.666667 10.666667 0 0 0-2.197334 1.258666 31.936 31.936 0 0 0-31.786666-12.202666zM245.333333 277.333333a10.602667 10.602667 0 0 0 4.202667-0.853333l43.84-18.858667c5.824 4.8 11.285333 10.090667 16.128 15.893334 10.069333 12.032 17.557333 26.304 20.544 43.2-28.266667 26.197333-52.437333 58.282667-67.626667 89.621333l-2.069333 4.416c0.853333-4.629333 1.301333-9.6 1.301333-14.954667 0-39.146667-25.493333-70.186667-42.069333-87.082666a32 32 0 0 0 25.749333-31.36z m-149.269333 34.176c25.770667 3.946667 55.04 12.373333 78.976 30.506667a114.709333 114.709333 0 0 0-13.824 34.282667l-65.152-64.789334z m131.029333 88.128c-10.325333-10.624-25.130667-18.112-44.693333-20.352 4.608-19.584 16.64-36.544 27.989333-49.194666 14.464 16.128 29.930667 39.168 29.930667 65.706666 0 7.424-1.088 13.418667-2.858667 18.24a60.458667 60.458667 0 0 0-10.368-14.4z m17.344 42.944v-0.917333c2.688-2.56 5.141333-5.461333 7.296-8.746667-4.053333 12.8-6.357333 25.322667-6.4 37.162667-0.042667 12.224 2.346667 23.893333 7.850667 34.133333l-46.506667-4.672a61.781333 61.781333 0 0 0 37.76-56.96z m-106.730666-59.562666a155.605333 155.605333 0 0 0-42.218667 19.306666c-13.162667-25.6-17.28-54.485333-17.941333-79.146666l60.16 59.84z m684.864 138.538666l-59.157334-49.834666 58.24-34.944c7.253333 3.754667 16.789333 8.32 26.624 12.309333 12.053333 4.885333 26.24 9.578667 37.056 9.578667a10.666667 10.666667 0 0 0 0-21.333334c-6.229333 0-16.938667-3.114667-29.056-8.021333-4.416-1.770667-8.746667-3.690667-12.842666-5.589333l98.005333-58.816a422.421333 422.421333 0 0 1-36.416 77.269333c-21.824 35.754667-49.664 66.581333-82.453333 79.36z m-76.416-64.362666l-45.952-38.677334a10.666667 10.666667 0 0 0-10.24-1.962666l-13.162667 4.373333a65.152 65.152 0 0 0-1.301333-13.162667c-2.474667-12.501333-8.213333-26.069333-15.722667-39.530666a10.581333 10.581333 0 0 0 1.301333-3.242667c2.154667-9.706667 16.384-28.373333 62.464-36.906667 42.090667-7.765333 108.48-6.4 208.853334 17.386667l-72.042667 43.2a91.84 91.84 0 0 1-0.896-8.277333c-0.576-9.045333 0.362667-17.536 3.413333-23.616a10.666667 10.666667 0 1 0-19.072-9.557334c-5.482667 10.986667-6.314667 23.829333-5.632 34.517334 0.426667 6.784 1.493333 13.226667 2.730667 18.624l-69.418667 41.642666a136.810667 136.810667 0 0 1-11.136-26.389333c-4.714667-15.573333-7.018667-33.365333-3.242666-50.688a10.666667 10.666667 0 1 0-20.842667-4.522667c-4.778667 21.930667-1.728 43.584 3.669333 61.397334 3.712 12.202667 8.597333 22.933333 13.269334 31.189333l-7.04 4.202667z m-91.584-45.312c1.493333 7.573333 1.024 12.949333-0.490667 16.64l-43.52 14.485333a45.226667 45.226667 0 0 0-0.853333-2.666667 87.381333 87.381333 0 0 0-4.693334-10.517333c-3.84-7.402667-9.173333-16.085333-15.402666-25.429333a869.717333 869.717333 0 0 0-39.829334-53.909334l20.608-18.901333 0.149334-0.149333 20.053333-18.368c19.392 19.52 38.122667 43.306667 50.496 65.450666 6.954667 12.458667 11.605333 23.872 13.482667 33.365334z m-64.96 35.626666a21.162667 21.162667 0 0 1 0.682666 2.261334l-28.330666 9.450666a10.666667 10.666667 0 0 0-6.570667 6.250667l-25.813333 66.346667-135.872-13.568a10.645333 10.645333 0 0 0-2.026667-2.986667c-12.650667-13.141333-26.474667-30.08-23.36-49.514667 4.16-26.026667 24-56.362667 49.557333-85.12a551.317333 551.317333 0 0 1 73.216-67.733333 1964.586667 1964.586667 0 0 1 35.84 43.157333c16.64 20.650667 32.896 42.197333 44.928 60.202667 6.037333 9.024 10.88 16.981333 14.186667 23.36 1.664 3.2 2.837333 5.824 3.562667 7.893333z m-242.346667 14.848c-3.456 21.44 5.973333 39.594667 16.085333 52.864l-80.106666-8.021333a10.624 10.624 0 0 0-1.728-1.749333c-10.026667-8.021333-14.912-19.84-14.848-35.306667 0.064-15.701333 5.290667-34.517333 14.976-54.506667 17.664-36.544 49.024-74.645333 84.288-101.205333l6.784 14.08a11.008 11.008 0 0 0 0.170666 0.341333l0.106667 0.213334 23.936 43.093333c-23.957333 27.946667-44.8 59.882667-49.664 90.197333z m48.725333-135.829333l95.04-76.8 57.706667 72.789333-12.373333 11.306667a1925.930667 1925.930667 0 0 0-35.626667-42.432 10.666667 10.666667 0 0 0-14.314667-1.642667 574.784 574.784 0 0 0-74.368 65.664l-16.064-28.885333zM78.506667 442.581333c21.525333-19.861333 53.653333-42.666667 91.285333-42.666666 21.205333 0 34.261333 6.613333 42.026667 14.613333a40.448 40.448 0 0 1 0 56.106667c-7.765333 8-20.821333 14.613333-42.026667 14.613333-37.632 0-69.76-22.805333-91.285333-42.666667zM330.666667 181.333333a21.333333 21.333333 0 1 1 42.666666 0 21.333333 21.333333 0 0 1-42.666666 0z m-128 96a10.666667 10.666667 0 1 1 21.333333 0 10.666667 10.666667 0 0 1-21.333333 0z m234.666666-170.666666a32 32 0 1 1 64 0 32 32 0 0 1-64 0z m163.946667 560.512c17.856 0.981333 32.426667 3.2 41.685333 6.72 4.650667 1.792 6.869333 3.498667 7.722667 4.544 0.426667 0.490667 0.533333 0.682667 0.298667 1.642666-0.384 1.493333-2.197333 4.864-13.525334 6.037334-10.624 1.109333-25.429333-0.384-42.581333-3.776a510.016 510.016 0 0 1-54.72-14.592 570.794667 570.794667 0 0 1 61.12-0.576zM386.346667 658.133333c22.826667-0.490667 49.834667 2.922667 73.6 7.402667-21.12 10.389333-45.568 20.544-67.328 25.984-15.872 3.968-28.949333 5.077333-37.973334 3.008a18.602667 18.602667 0 0 1-9.216-4.522667c-1.877333-1.834667-3.498667-4.608-4.245333-9.088-0.746667-4.501333-0.064-7.424 1.002667-9.472 1.130667-2.133333 3.221333-4.309333 6.954666-6.336 7.872-4.266667 20.693333-6.613333 37.205334-6.976z" p-id="14350" fill="#eeb173"></path></svg>