<svg xmlns="http://www.w3.org/2000/svg" width="1536" height="1024" viewBox="0 0 1536 1024" fill="none">
  <g transform="translate(0 1024) scale(0.1 -0.1)" fill="#c8a96e">
    <path d="M9586 7689 c-54 -9 -99 -36 -104 -63 -8 -41 8 -64 55 -82 77 -28 96 -47 125 -121 35 -88 48 -157 48 -247 0 -92 -8 -133 -28 -141 -8 -3 -85 -21 -171 -40 -121 -27 -196 -37 -336 -45 -99 -6 -191 -12 -205 -14 -14 -1 -37 -4 -52 -4 -36 -2 -36 -17 1 -30 20 -7 30 -19 34 -40 4 -21 19 -38 54 -60 63 -41 83 -61 76 -77 -2 -8 5 -20 16 -27 12 -7 21 -20 21 -28 1 -21 77 -102 121 -128 87 -52 251 -75 373 -52 37 7 69 10 72 8 2 -3 7 -35 11 -72 l6 -66 -40 -38 c-36 -34 -54 -42 -184 -75 -79 -20 -187 -46 -239 -56 -211 -44 -417 -81 -443 -81 -45 0 -97 -26 -97 -49 0 -12 7 -21 15 -21 13 0 14 -4 5 -20 -7 -14 -8 -26 -1 -39 22 -40 216 -155 309 -182 23 -7 42 -14 42 -16 0 -2 -7 -15 -16 -29 -21 -32 -21 -122 1 -266 31 -208 100 -347 239 -480 91 -87 98 -105 28 -69 -43 22 -181 44 -217 35 -13 -3 -31 -17 -39 -30 -15 -21 -14 -28 4 -77 11 -30 32 -67 46 -82 14 -15 23 -29 20 -32 -2 -3 -37 -9 -78 -14 -102 -12 -118 -17 -118 -36 0 -13 8 -15 48 -9 113 16 172 19 172 8 0 -6 -17 -16 -37 -21 -21 -6 -83 -21 -138 -35 -55 -14 -126 -33 -158 -42 -32 -8 -104 -24 -160 -34 -56 -9 -201 -43 -322 -75 -121 -32 -240 -61 -265 -66 -25 -5 -80 -26 -122 -46 -69 -32 -78 -40 -84 -69 -8 -42 1 -68 38 -110 56 -63 97 -77 228 -78 110 0 120 2 230 41 63 23 171 67 240 98 248 112 568 241 576 232 11 -11 -115 -230 -171 -297 -20 -24 -58 -60 -83 -79 -26 -20 -51 -42 -55 -48 -27 -42 -231 -120 -340 -130 -59 -5 -68 -9 -73 -29 -17 -66 52 -144 152 -174 31 -9 58 -8 129 4 50 9 98 17 108 18 15 2 25 -13 47 -75 15 -43 33 -84 39 -90 26 -26 6 -101 -54 -192 -18 -27 -45 -74 -61 -104 -16 -29 -42 -68 -59 -86 -86 -94 -137 -145 -174 -174 -23 -18 -39 -37 -35 -42 14 -24 225 16 304 58 46 24 139 94 169 127 14 14 33 26 42 26 19 0 74 -69 121 -150 35 -61 51 -74 140 -109 112 -44 147 -48 203 -21 54 26 137 122 168 195 12 28 36 75 54 105 17 30 39 84 48 120 9 35 27 83 41 105 30 53 49 142 33 162 -9 10 -6 27 14 71 14 31 30 77 37 102 17 68 31 100 45 100 13 0 55 -132 55 -173 0 -101 74 -398 124 -493 35 -68 111 -143 175 -171 68 -31 91 -28 63 7 -10 14 -22 43 -25 65 -6 40 -6 40 11 16 29 -40 61 -71 73 -71 17 0 5 124 -15 155 -27 41 -21 55 22 55 22 0 65 9 98 20 59 21 173 42 229 43 44 1 180 -63 294 -138 54 -36 104 -65 110 -65 7 0 8 16 4 45 -6 50 0 55 34 23 13 -12 25 -20 27 -17 2 2 -5 36 -15 74 -10 39 -23 95 -28 126 -5 31 -19 76 -31 100 -29 56 -110 182 -122 190 -6 4 -2 18 10 35 97 137 192 336 192 401 0 56 -43 134 -108 196 -79 74 -209 139 -293 145 -103 8 -125 -1 -219 -92 -94 -91 -110 -100 -223 -127 -43 -11 -112 -35 -154 -54 -42 -19 -80 -35 -86 -35 -5 0 -27 16 -48 34 -41 38 -76 50 -189 66 -41 6 -88 14 -104 18 -27 7 -23 10 50 31 175 51 295 129 489 316 76 74 153 141 170 149 16 8 55 17 85 20 30 3 105 12 165 21 172 23 497 14 650 -19 106 -23 196 -21 230 6 25 19 27 26 23 75 -4 42 -13 66 -44 110 -107 156 -322 215 -526 145 -47 -17 -130 -38 -185 -47 -54 -9 -116 -20 -138 -25 -22 -5 -59 -11 -83 -15 -23 -3 -61 -13 -83 -21 -23 -7 -45 -14 -50 -14 -4 0 -22 27 -40 60 -17 32 -55 85 -83 117 -29 32 -67 81 -86 108 -18 28 -51 69 -72 91 l-40 42 55 25 c30 14 85 54 126 93 40 37 102 90 138 118 37 29 72 64 79 81 11 28 9 35 -35 107 -64 105 -83 123 -165 152 -100 35 -146 39 -270 21 -180 -25 -456 -122 -874 -307 -110 -49 -127 -46 -127 22 -1 61 -28 47 393 191 95 32 261 94 370 138 108 43 305 116 437 160 l240 82 149 9 c82 5 153 13 159 19 16 16 -12 71 -67 129 -82 87 -149 117 -287 129 -92 7 -154 -6 -264 -55 -90 -40 -157 -48 -163 -20 -5 24 45 132 74 158 26 25 166 78 359 135 116 35 130 42 157 81 12 18 26 31 29 28 4 -2 15 3 23 12 17 17 22 59 7 68 -5 3 -23 31 -40 61 -21 38 -49 67 -91 96 -33 24 -60 46 -60 51 0 13 -48 39 -92 51 -24 6 -90 11 -148 12 l-104 0 -2 30 c-3 56 -43 170 -79 223 -20 29 -54 66 -77 82 -102 74 -362 118 -532 89z m604 -1939 c0 -6 -13 -38 -29 -73 -35 -76 -97 -138 -172 -171 -98 -43 -511 -167 -563 -169 -46 -2 -51 0 -68 30 -26 43 -13 61 77 112 65 37 114 55 305 111 41 12 118 44 170 71 133 69 280 116 280 89z m30 -668 c24 -18 45 -74 37 -96 -6 -14 -38 -22 -302 -76 -110 -23 -232 -51 -271 -62 -39 -12 -79 -18 -89 -14 -16 6 -15 10 15 41 35 36 120 90 178 114 38 16 42 31 8 31 -63 0 -77 34 -18 43 20 3 107 13 192 22 85 9 157 18 160 21 9 10 64 -6 90 -24z m-132 -378 c-49 -68 -113 -132 -208 -205 -179 -139 -238 -173 -275 -159 -21 8 -23 14 -18 49 5 38 2 45 -41 91 -25 27 -46 52 -46 55 0 40 86 88 230 128 262 75 308 86 348 86 l43 1 -33 -46z m682 -721 c0 -40 -55 -208 -81 -250 -17 -27 -41 -44 -93 -68 -68 -32 -239 -95 -256 -95 -4 0 -11 30 -15 68 -4 37 -15 111 -25 164 l-17 98 41 11 c22 5 93 26 156 44 172 51 181 53 238 54 50 1 52 0 52 -26z m-1147 6 c48 -13 53 -27 29 -82 -11 -25 -36 -107 -57 -183 -20 -77 -48 -179 -62 -229 -25 -89 -36 -133 -48 -187 -13 -67 -133 -37 -224 56 -33 33 -41 49 -37 64 4 11 36 60 72 107 79 107 190 325 199 392 4 26 8 54 10 61 5 15 66 16 118 1z m-529 -192 c18 -13 17 -16 -16 -62 -18 -27 -39 -50 -45 -52 -6 -2 -30 22 -53 54 -41 57 -41 58 -18 64 41 12 114 9 132 -4z"/>
    <path d="M3874 7606 c-39 -17 -84 -65 -84 -88 0 -31 22 -67 49 -76 14 -6 48 -15 75 -22 85 -19 136 -52 162 -103 24 -46 36 -227 20 -305 -8 -37 -17 -130 -20 -207 -4 -77 -12 -176 -18 -220 -6 -44 -12 -93 -13 -108 -3 -38 -12 -45 -67 -51 -60 -7 -128 -34 -128 -50 0 -18 -34 -33 -125 -55 -135 -33 -242 -51 -343 -56 -53 -3 -121 -8 -149 -11 -50 -5 -53 -7 -53 -33 0 -62 96 -218 185 -299 62 -57 188 -123 270 -143 28 -6 101 -12 163 -11 86 0 112 -3 112 -13 0 -22 -91 -229 -108 -247 -10 -9 -48 -28 -87 -43 -80 -31 -103 -52 -111 -105 -8 -48 -26 -58 -189 -106 -143 -42 -177 -44 -405 -31 -153 9 -173 4 -203 -53 -26 -50 -18 -213 17 -328 26 -85 37 -201 51 -512 7 -164 21 -278 42 -338 30 -88 118 -197 232 -287 58 -47 109 -81 113 -77 4 4 3 57 -3 117 -5 61 -14 171 -18 245 -5 74 -15 217 -22 317 -10 159 -10 197 3 290 9 60 16 129 16 155 1 79 23 103 155 157 43 17 138 61 212 97 74 36 139 62 145 59 5 -3 10 -30 10 -59 0 -68 13 -107 61 -180 22 -32 39 -60 39 -61 0 -2 -8 -1 -18 2 -22 5 -168 -144 -188 -194 -34 -80 -7 -171 57 -197 109 -44 269 -2 416 108 33 25 64 46 67 46 4 0 -12 -27 -35 -59 -40 -57 -52 -103 -38 -150 7 -25 -88 -69 -185 -86 -109 -19 -180 -63 -190 -119 -12 -63 25 -177 70 -220 57 -52 168 -58 302 -16 87 27 90 27 96 -22 21 -192 40 -304 60 -370 13 -42 27 -95 31 -117 4 -23 11 -43 16 -47 5 -3 9 -12 9 -21 0 -20 75 -93 95 -93 15 0 45 59 76 148 18 53 31 208 44 527 4 82 8 152 11 156 2 4 47 21 100 38 99 33 171 41 237 26 70 -15 165 44 152 95 -15 62 -17 80 -6 80 6 0 11 7 11 15 0 8 -6 15 -14 15 -8 0 -33 38 -56 85 -43 87 -100 150 -142 159 -13 3 -39 7 -59 11 -39 6 -62 26 -74 63 -5 19 -1 25 32 38 186 76 263 146 263 240 0 54 -34 163 -61 198 -30 38 -52 47 -132 53 -40 3 -73 7 -75 8 -2 1 20 48 48 103 27 55 50 106 50 112 0 6 7 24 15 39 16 32 53 44 184 61 169 21 342 3 454 -47 69 -31 133 -99 143 -151 17 -91 -9 -421 -56 -702 -11 -63 -31 -192 -45 -285 -27 -187 -88 -403 -131 -468 -14 -21 -37 -43 -52 -48 -53 -21 -150 -5 -277 46 -145 58 -205 84 -225 100 -8 6 -38 21 -67 33 -56 24 -103 18 -103 -13 0 -36 88 -181 154 -254 17 -18 88 -80 157 -137 145 -119 161 -136 249 -266 36 -53 75 -101 88 -107 13 -6 44 -11 70 -11 40 0 56 6 104 43 31 23 72 60 90 81 18 21 49 57 69 80 45 50 148 250 172 331 10 33 36 115 58 183 21 67 39 131 39 143 0 11 7 34 16 51 17 32 42 219 69 503 29 317 45 428 65 468 11 21 20 44 20 53 0 8 9 32 20 54 27 52 26 127 -1 185 -45 96 -222 223 -374 270 -139 42 -519 64 -736 41 l-77 -7 5 45 c6 51 -17 133 -49 179 -34 47 -110 77 -196 77 -89 0 -161 -19 -264 -71 -43 -22 -80 -39 -83 -39 -2 0 6 25 20 55 13 31 29 81 34 112 6 31 12 57 13 58 2 2 18 10 36 19 18 9 52 37 75 62 50 55 92 82 172 114 33 13 76 34 96 46 52 32 127 51 254 64 61 6 112 15 113 21 2 5 8 9 14 9 5 0 23 9 39 21 37 26 37 57 2 127 -77 153 -263 228 -497 202 -115 -13 -142 -9 -150 24 -3 13 1 79 9 147 29 236 30 278 6 333 -44 100 -270 288 -406 338 -76 27 -244 36 -291 14z m726 -1860 c0 -50 -26 -104 -61 -125 -16 -10 -83 -31 -147 -46 -64 -15 -129 -31 -144 -36 -16 -4 -28 -5 -27 -1 0 4 19 41 43 82 59 102 89 122 231 148 97 18 105 16 105 -22z m-80 -403 c0 -46 -29 -183 -46 -218 -9 -19 -25 -40 -37 -48 -23 -15 -243 -101 -296 -117 l-31 -9 0 88 c0 49 3 110 7 136 7 58 19 66 193 134 163 63 151 59 183 60 23 1 27 -3 27 -26z m-1257 -212 c38 -5 71 -12 75 -16 7 -7 -150 -156 -185 -176 -31 -17 -46 -2 -66 68 -23 80 -25 106 -7 120 18 15 88 16 183 4z"/>
  </g>
</svg>
