<svg version="1.1" id="Layer_1" xmlns="http://www.w3.org/2000/svg" xmlns:xlink="http://www.w3.org/1999/xlink" x="0px" y="0px"
	 width="100%" viewBox="0 0 1024 848" enable-background="new 0 0 1024 848" xml:space="preserve">
<path fill="#000000" opacity="1.000000" stroke="none" 
	d="
M425.351685,423.759735 
	C426.038025,433.691162 426.563293,443.162170 427.448486,452.599426 
	C428.507294,463.887512 434.416046,471.658844 444.931030,476.114838 
	C453.042206,479.552124 461.604736,480.680237 470.202148,481.664154 
	C473.113312,481.997314 474.946533,482.715332 474.887970,486.051056 
	C474.828094,489.461548 472.860352,490.120117 469.969513,490.118011 
	C436.645020,490.093689 403.320465,490.120483 369.995941,490.127136 
	C367.392700,490.127655 364.949036,490.086670 364.772644,486.401276 
	C364.601654,482.829346 366.356964,481.951477 369.555023,481.631378 
	C376.521454,480.934174 383.413727,479.663483 389.913513,476.887207 
	C399.072327,472.975220 405.123718,466.647034 407.016968,456.425385 
	C409.574432,442.617462 410.244995,428.646759 410.522858,414.720398 
	C411.054626,388.070648 410.099640,361.383270 410.952881,334.749695 
	C412.212067,295.447266 411.167023,256.153839 411.672577,216.860886 
	C411.688751,215.603104 411.238434,214.191666 412.453644,213.093384 
	C414.402954,213.137711 415.204102,214.760025 416.252472,215.957932 
	C464.410217,270.986053 512.534119,326.043854 560.753296,381.018036 
	C563.130310,383.728027 564.226807,386.406128 564.145935,389.973145 
	C563.956970,398.300232 564.099670,406.634338 564.031433,414.964966 
	C564.017029,416.722076 564.561584,418.643768 562.205078,421.176147 
	C516.672119,369.421631 471.257599,317.801727 425.349976,265.621338 
	C425.349976,318.648438 425.349976,370.966400 425.351685,423.759735 
z"/>
<path fill="#000000" opacity="1.000000" stroke="none" 
	d="
M541.116577,215.858734 
	C570.588257,215.849579 599.578552,215.840958 628.568848,215.834320 
	C630.068298,215.833984 631.567749,215.848953 633.067200,215.859619 
	C635.724609,215.878540 638.101440,216.120285 638.270569,219.694199 
	C638.453430,223.558945 635.874512,223.894104 633.074402,224.171371 
	C629.934143,224.482300 626.786011,224.760727 623.666016,225.220932 
	C606.150085,227.804459 599.475220,235.420303 599.379883,253.407486 
	C599.221863,283.230011 599.219910,313.053436 599.198303,342.876526 
	C599.175354,374.532593 599.645081,406.196472 599.084106,437.842499 
	C598.572754,466.684052 591.274963,493.836365 574.801025,517.917542 
	C561.352478,537.576355 543.892151,552.252258 520.625854,559.111755 
	C519.181396,559.537598 517.683228,560.937317 516.003845,559.623840 
	C515.892700,558.345642 516.818542,557.815247 517.606506,557.239441 
	C543.558594,538.273804 558.269531,511.975647 566.749023,481.673218 
	C572.346619,461.669861 574.728943,441.202148 574.750549,420.470276 
	C574.806519,366.821625 574.740662,313.172913 574.773315,259.524200 
	C574.776672,254.002502 574.422791,248.512421 573.257019,243.145493 
	C570.945679,232.504791 564.300842,227.350250 550.715515,225.424774 
	C546.439880,224.818787 542.100830,224.660812 537.824219,224.060226 
	C535.363342,223.714600 532.090637,224.098145 532.192810,220.019638 
	C532.294678,215.952209 535.102051,215.749298 538.136536,215.855865 
	C538.968445,215.885101 539.802185,215.859924 541.116577,215.858734 
z"/>
<path fill="#000000" opacity="1.000000" stroke="none" 
	d="
M474.200409,643.714355 
	C475.133270,646.744324 472.564331,647.860352 471.768555,649.750366 
	C470.281799,653.281494 468.463593,656.602661 469.154449,660.712891 
	C469.614319,663.448853 467.076782,663.632690 465.255737,664.740662 
	C467.459747,664.740662 469.663788,664.739990 471.867798,664.740845 
	C474.917114,664.742065 476.146484,666.974182 474.839478,668.985840 
	C472.203064,673.043457 473.122772,677.316711 472.915527,681.538696 
	C472.691010,686.113464 470.559723,687.895569 466.671661,685.807068 
	C463.755096,684.240540 461.649353,684.502686 458.834473,685.864441 
	C455.029144,687.705444 452.766418,686.067627 452.810486,681.789795 
	C452.947327,668.501709 451.859375,670.937256 463.585632,670.654175 
	C465.316040,670.612427 467.048279,670.648315 468.750854,670.116943 
	C460.606842,670.116943 452.462830,670.116943 444.318817,670.116943 
	C446.631195,672.731567 452.071625,668.668030 452.045013,674.775574 
	C452.026978,678.919128 452.206024,683.488098 447.582489,685.590271 
	C444.242920,687.108582 440.769836,687.237915 438.801758,683.180237 
	C432.113129,687.380920 432.113129,687.380920 428.701721,682.378052 
	C428.742096,680.846191 430.186310,680.764282 431.066284,680.107544 
	C431.857330,679.517029 432.682831,678.972534 433.522522,678.387329 
	C432.998718,676.475342 430.616119,677.716064 430.069794,676.071960 
	C429.630615,674.750305 429.629944,673.474304 430.013611,672.270020 
	C431.610962,670.591187 433.656708,672.085449 436.291718,670.814758 
	C433.960632,670.576904 432.510956,670.401917 431.056519,670.287781 
	C429.387360,670.156616 428.770721,669.199890 428.783173,667.629333 
	C428.795349,666.093750 429.377289,664.966614 431.013428,664.887451 
	C433.170563,664.783081 435.336548,664.861816 437.656128,664.596619 
	C435.858459,663.832947 433.814056,663.095398 434.349670,660.836426 
	C435.634949,655.415405 432.325836,651.555481 430.147034,647.290405 
	C428.216400,643.511169 429.282135,641.783630 433.316681,641.574707 
	C438.930389,641.284058 444.913055,643.352783 449.991425,639.011414 
	C450.637085,638.459473 452.695343,638.538086 453.312103,639.136169 
	C458.122803,643.801331 463.911224,641.599487 469.372009,641.740112 
	C471.078491,641.784058 473.145294,640.959778 474.200409,643.714355 
M451.513428,653.091309 
	C448.150635,653.091309 444.787872,653.091309 441.425079,653.091309 
	C441.428925,653.253784 441.432800,653.416260 441.436646,653.578735 
	C448.502808,653.578735 455.569000,653.578735 462.635162,653.578735 
	C462.638336,653.418274 462.641541,653.257751 462.644714,653.097290 
	C459.257965,653.097290 455.871216,653.097290 451.513428,653.091309 
M452.418762,658.236511 
	C449.440399,658.236511 446.462067,658.236511 443.483704,658.236511 
	C443.485992,658.384521 443.488281,658.532593 443.490570,658.680603 
	C448.908722,658.680603 454.326904,658.680603 459.745056,658.680603 
	C459.745239,658.532227 459.745392,658.383911 459.745575,658.235535 
	C457.607574,658.235535 455.469604,658.235535 452.418762,658.236511 
z"/>
<path fill="#000000" opacity="1.000000" stroke="none" 
	d="
M396.144775,642.496582 
	C399.977997,637.502380 401.164703,637.419800 405.812012,641.885742 
	C406.906525,642.937561 408.202240,642.958069 409.519287,642.950134 
	C413.347290,642.927063 417.176910,642.902100 421.002014,642.767212 
	C423.585724,642.676086 425.260590,643.488770 425.189972,646.362183 
	C425.120605,649.184509 423.440582,650.038269 420.867676,649.878357 
	C417.218414,649.651428 413.565216,649.429626 409.911041,649.371277 
	C408.535217,649.349182 406.871307,648.791199 405.397675,651.168701 
	C409.862610,652.292664 413.998810,652.032043 418.122742,651.311890 
	C421.084045,650.794739 422.522614,651.649353 422.475311,654.872192 
	C422.348236,663.527771 422.478668,672.188171 422.277069,680.841248 
	C422.182465,684.900208 419.490540,686.374329 413.937622,686.336548 
	C409.786133,686.308289 408.277191,684.373352 408.757019,680.589111 
	C410.684875,678.656555 413.670959,680.800415 415.510376,678.135132 
	C413.187866,675.036499 409.878113,676.491272 407.134552,676.633362 
	C404.654022,676.761719 405.076141,679.260620 405.001007,681.013123 
	C404.900848,683.349976 404.675262,685.284729 401.543701,685.331360 
	C398.225677,685.380859 397.548706,683.448547 397.782288,680.834412 
	C398.150635,676.711243 395.760773,676.414795 392.507355,676.316101 
	C388.660706,676.199219 388.037628,678.176208 388.225891,681.279907 
	C388.395325,684.073730 388.380493,686.770203 384.328003,686.641113 
	C380.537903,686.520447 380.845428,683.919617 380.855011,681.363098 
	C380.885559,673.205566 381.049164,665.042908 380.818237,656.892029 
	C380.687805,652.287964 382.495789,650.538574 387.004456,650.898010 
	C390.106049,651.145386 393.243317,650.945496 396.371063,649.963867 
	C392.010803,649.963867 387.650543,649.961792 383.290283,649.964661 
	C380.775696,649.966309 378.533997,649.663208 378.538605,646.328003 
	C378.543182,642.999878 380.687805,642.732361 383.269745,642.757446 
	C387.428345,642.797852 391.588562,642.678284 396.144775,642.496582 
M414.083099,662.565552 
	C415.099487,667.869202 414.476349,668.612366 409.497711,667.908691 
	C407.941589,667.688721 406.236725,666.765198 405.262573,669.454773 
	C408.665710,671.970093 411.995667,669.670044 415.622070,669.687805 
	C415.622070,666.560974 415.632019,663.778564 415.618042,660.996338 
	C415.610596,659.515503 415.144531,658.397034 413.395386,658.351868 
	C412.256622,658.322449 411.446869,658.855652 411.142792,659.900085 
	C410.494812,662.126099 412.567841,661.553711 414.083099,662.565552 
M388.188019,662.765503 
	C388.333160,665.037170 387.772003,667.382019 388.881683,669.743042 
	C391.506439,670.125671 394.090820,670.368774 396.555298,668.963684 
	C395.107239,668.423218 393.670197,668.275940 392.231445,668.257080 
	C390.802765,668.238281 389.495178,667.984619 389.106415,666.421143 
	C388.747925,664.979309 388.467468,663.350891 389.896881,662.313477 
	C390.924164,661.567871 392.603516,661.351746 391.592285,659.522644 
	C391.323395,659.036316 390.572906,658.454102 390.104187,658.502563 
	C387.947784,658.725464 388.432648,660.558105 388.188019,662.765503 
M402.019470,658.170166 
	C396.554932,658.551453 399.819458,660.544250 401.017212,662.433472 
	C403.360138,660.339355 403.360138,660.339355 402.019470,658.170166 
z"/>
<path fill="#000000" opacity="1.000000" stroke="none" 
	d="
M534.851562,644.002686 
	C537.369202,643.845520 539.364075,644.611572 540.191223,641.009216 
	C540.702759,638.781311 544.120972,637.854492 546.663818,640.715027 
	C550.647400,645.196411 552.594421,645.192810 556.588989,640.933228 
	C559.008484,638.353149 562.454224,638.745544 563.284058,641.003967 
	C564.458557,644.200012 566.306946,643.913025 568.521790,643.995483 
	C571.086853,644.090881 573.356750,644.574524 573.042114,647.858154 
	C572.710693,651.317017 570.003296,650.889160 567.727112,650.665466 
	C563.982483,650.297485 560.271423,650.098938 556.526917,651.753906 
	C559.891968,651.753906 563.257324,651.785156 566.621887,651.742920 
	C568.863586,651.714783 570.691833,652.257812 570.821838,654.877380 
	C570.959106,657.642700 568.963562,658.125671 566.818176,658.163452 
	C563.397278,658.223694 559.974548,658.179626 556.557373,658.737000 
	C560.682373,660.105347 564.846802,659.878235 569.017029,659.352295 
	C571.515747,659.037109 574.373718,658.249573 574.753357,662.018433 
	C575.160461,666.060059 572.087341,665.823059 569.363220,665.994507 
	C564.822449,666.280273 560.204651,665.403992 555.716797,666.894531 
	C560.349060,668.178833 565.061890,667.635925 569.731567,667.566467 
	C572.178162,667.530212 574.113342,667.667542 574.083252,670.799927 
	C574.051147,674.135193 571.954224,673.861755 569.597351,673.623169 
	C566.472168,673.306885 563.310303,673.073547 559.788391,674.087952 
	C563.762695,678.944031 569.748962,678.330444 574.544434,680.325623 
	C574.023010,686.469116 573.139771,687.027710 567.719910,685.807495 
	C561.511475,684.409851 556.287903,681.415344 551.658752,676.446533 
	C547.182007,680.774353 542.415588,684.207581 536.438049,685.593323 
	C531.103699,686.829895 530.468140,686.507996 529.050964,680.550293 
	C533.593811,678.538025 539.130737,678.528198 543.491760,673.889038 
	C539.634460,673.889038 536.439758,673.847046 533.246765,673.902344 
	C530.711182,673.946228 529.641602,672.801331 529.718750,670.260254 
	C529.799011,667.621521 531.362366,667.460693 533.429321,667.543762 
	C537.858154,667.721802 542.310608,668.122681 546.698914,667.264160 
	C546.721313,666.833313 546.743713,666.402466 546.766113,665.971619 
	C542.365479,665.971619 537.964600,665.998352 533.564331,665.957703 
	C531.937683,665.942688 530.131836,666.217529 529.079712,664.492615 
	C527.557861,661.997742 529.163147,659.134460 532.349609,659.013916 
	C536.810120,658.845032 541.281677,658.971313 545.766968,658.135620 
	C542.895630,658.135620 540.024048,658.157227 537.153015,658.128601 
	C534.906250,658.106262 532.626465,658.078186 532.766846,654.835449 
	C532.904297,651.660522 535.186523,651.756714 537.417236,651.758118 
	C540.353027,651.759949 543.288879,651.758545 546.224670,651.758545 
	C546.232788,651.306396 546.240967,650.854187 546.249084,650.402039 
	C542.562378,650.402039 538.875488,650.426514 535.189148,650.391785 
	C533.325745,650.374207 530.991272,651.266357 530.711792,648.040039 
	C530.467773,645.222839 531.802795,644.052979 534.851562,644.002686 
z"/>
<path fill="#000000" opacity="1.000000" stroke="none" 
	d="
M595.601685,679.713196 
	C598.845154,679.300232 598.816162,677.222290 598.493469,675.173035 
	C598.134705,672.894165 596.174866,673.104004 594.555786,673.079590 
	C590.560669,673.019531 586.561951,672.986084 582.568787,673.094360 
	C579.776855,673.169983 578.619202,671.985168 578.775696,669.214111 
	C578.937744,666.345886 580.690125,666.105774 582.932617,666.408569 
	C583.919617,666.541870 584.923462,666.602722 585.919861,666.605347 
	C592.079285,666.621643 598.589233,667.877563 603.179504,661.024109 
	C599.445007,661.024109 595.759705,661.021973 592.074402,661.024841 
	C589.741943,661.026611 587.658081,660.779968 587.748291,657.629883 
	C587.833313,654.657410 589.943542,654.737915 591.977417,654.732056 
	C598.304565,654.713867 604.632568,654.788635 610.958557,654.702759 
	C613.037964,654.674561 614.824097,655.339172 616.755554,656.752625 
	C617.719238,654.311279 617.176819,653.280029 614.922668,653.279602 
	C606.431091,653.277893 597.939453,653.322815 589.447998,653.295776 
	C586.997986,653.287964 586.321228,654.667419 586.285400,656.791260 
	C586.242615,659.324829 585.236450,661.028015 582.368469,660.702271 
	C579.558289,660.382996 579.032349,658.358215 579.063538,655.989380 
	C579.072327,655.323486 579.125427,654.650879 579.054871,653.992371 
	C578.570129,649.468140 579.447937,645.976440 584.860229,646.278870 
	C585.888550,644.415405 583.700378,643.261414 584.574097,641.572021 
	C591.285278,636.211182 592.167175,645.835999 596.305237,646.867676 
	C598.270142,644.588135 595.692322,643.184875 596.078369,641.438721 
	C600.659485,638.365601 601.744202,638.634460 604.298706,643.418457 
	C604.973816,644.682922 605.190308,646.460876 607.070618,646.610107 
	C609.176147,646.777161 609.981018,645.072754 610.573181,643.578918 
	C612.338745,639.124695 615.052734,638.767273 618.542725,641.250977 
	C619.861267,643.078857 617.283997,644.393250 618.155273,646.012939 
	C619.953979,647.538635 623.959717,645.298645 624.084839,649.137512 
	C624.205078,652.825134 625.755920,656.996155 622.953491,660.119263 
	C621.421387,661.826660 618.908813,660.837585 616.967346,659.224670 
	C614.133240,661.457581 611.322815,663.671875 607.835144,666.419678 
	C612.422913,666.419678 616.181885,666.597717 619.914124,666.358948 
	C622.529114,666.191650 624.780212,666.194763 624.905273,669.492371 
	C625.046875,673.223267 622.388306,673.168396 619.732361,673.008240 
	C616.249878,672.798340 612.763306,672.657104 609.281189,672.442261 
	C606.239014,672.254578 605.020630,673.685181 605.321960,676.648743 
	C605.422485,677.637329 605.277405,678.648743 605.341125,679.643555 
	C605.613770,683.899780 603.918762,686.181213 599.385559,686.361450 
	C591.719482,686.666321 591.246094,686.471802 590.472229,680.522949 
	C591.866821,679.220337 593.609192,679.908081 595.601685,679.713196 
z"/>
<path fill="#000000" opacity="1.000000" stroke="none" 
	d="
M396.181061,608.775330 
	C392.827881,603.674500 389.663849,598.885437 386.499817,594.096375 
	C386.089722,594.217529 385.679626,594.338745 385.269531,594.459900 
	C385.269531,600.530090 385.234070,606.600647 385.285858,612.670410 
	C385.308685,615.343262 385.346558,617.531311 381.503723,617.510498 
	C377.737518,617.490051 376.640656,616.066650 376.708466,612.452515 
	C376.892517,602.641296 376.707489,592.823669 376.798004,583.009766 
	C376.819275,580.702881 375.821045,577.627014 379.373779,576.861023 
	C382.700073,576.143860 385.409698,576.899292 387.418121,580.178528 
	C391.653473,587.093689 396.219910,593.806091 401.686615,600.407349 
	C401.686615,594.344788 401.666534,588.282166 401.695953,582.219788 
	C401.708679,579.594849 401.194794,576.763977 405.402161,576.655212 
	C409.426056,576.551270 410.111572,578.820679 410.106140,582.025024 
	C410.088959,592.172424 410.137787,602.320007 410.084412,612.467102 
	C410.075256,614.207153 410.532288,616.591431 408.195038,617.083435 
	C405.686523,617.611511 402.782196,618.300842 400.813263,615.714966 
	C399.204926,613.602600 397.841980,611.303467 396.181061,608.775330 
z"/>
<path fill="#000000" opacity="1.000000" stroke="none" 
	d="
M328.780579,580.293030 
	C329.262695,576.101990 332.048065,576.590576 334.491547,576.846008 
	C337.268890,577.136475 337.122406,579.441223 337.128784,581.425171 
	C337.161469,591.568176 337.193146,601.711853 337.105377,611.854187 
	C337.088226,613.833862 337.990143,616.623047 334.917480,617.179932 
	C331.992706,617.710144 329.045288,617.922119 327.012421,614.672302 
	C323.046539,608.332214 318.832550,602.147156 314.711273,595.904541 
	C314.190918,595.116333 313.610077,594.368042 312.210144,592.426208 
	C312.210144,599.999146 312.150421,606.233826 312.235474,612.466614 
	C312.277557,615.554138 311.653137,617.467102 307.861938,617.447266 
	C303.943298,617.426880 303.661499,615.249634 303.676575,612.298157 
	C303.727539,602.321533 303.665283,592.344299 303.709442,582.367554 
	C303.719391,580.118958 303.202850,577.364868 306.487061,576.839294 
	C309.353851,576.380554 311.974548,576.549194 313.832397,579.561157 
	C317.495697,585.500244 321.441162,591.265686 325.291168,597.089050 
	C326.089905,598.297180 326.591034,599.769958 328.753143,600.807129 
	C328.753143,593.879456 328.753143,587.320679 328.780579,580.293030 
z"/>
<path fill="#000000" opacity="1.000000" stroke="none" 
	d="
M532.816650,610.181885 
	C530.751892,615.341431 527.028503,617.328369 522.085205,617.368042 
	C517.593384,617.404053 513.098328,617.293579 508.609985,617.426208 
	C505.557434,617.516357 503.896149,616.479248 503.917267,613.197388 
	C503.985748,602.550110 504.011566,591.902283 503.983337,581.254822 
	C503.974396,577.880798 505.434814,576.470947 508.850800,576.649902 
	C512.667480,576.849792 516.515808,576.513794 520.324707,576.779297 
	C529.370422,577.409729 533.882751,584.488159 530.690125,592.940308 
	C530.023499,594.705200 529.234070,596.147522 530.754211,597.948364 
	C533.687317,601.423096 533.702209,605.565735 532.816650,610.181885 
M523.798279,602.583496 
	C521.171875,600.124023 517.874817,601.161621 514.838745,600.903015 
	C512.856934,600.734192 512.251099,602.043457 512.347168,603.747192 
	C512.454651,605.652893 511.419861,608.328857 513.437683,609.217957 
	C516.453430,610.546692 519.982361,610.550781 522.989014,608.930542 
	C525.205811,607.736084 525.085938,605.415771 523.798279,602.583496 
M523.333801,589.262512 
	C522.219482,584.403992 519.382751,583.371765 512.602844,585.451538 
	C512.531860,587.585754 511.123260,590.531982 513.908447,591.467407 
	C516.877625,592.464600 520.432861,593.048950 523.333801,589.262512 
z"/>
<path fill="#000000" opacity="1.000000" stroke="none" 
	d="
M624.981018,606.599365 
	C626.955200,598.506897 625.635803,590.659851 626.039185,582.876953 
	C626.133301,581.060669 625.834167,579.073120 627.284180,577.686829 
	C628.758118,576.277771 630.706299,576.580322 632.501831,576.955383 
	C634.253052,577.321228 634.928284,578.794922 634.899597,580.342224 
	C634.742371,588.810303 635.855591,597.333923 634.184021,605.736694 
	C632.353516,614.938782 625.526917,619.155640 614.527100,618.134521 
	C606.260742,617.367188 601.739990,612.002319 601.656433,602.722656 
	C601.591980,595.566162 601.654602,588.408508 601.615234,581.251648 
	C601.601074,578.678955 601.926392,576.731689 605.299011,576.663025 
	C608.848816,576.590820 609.407715,578.454895 609.371704,581.363281 
	C609.291321,587.853455 609.165161,594.355286 609.466248,600.833374 
	C609.653381,604.860229 610.488403,609.087036 615.239380,610.333191 
	C618.991089,611.317200 622.569519,610.797974 624.981018,606.599365 
z"/>
<path fill="#000000" opacity="1.000000" stroke="none" 
	d="
M544.637451,606.054016 
	C544.317078,609.064758 545.637512,609.954773 548.132446,609.900269 
	C551.622375,609.823975 555.115967,609.926697 558.608032,609.937927 
	C561.476868,609.947144 562.903259,611.428467 562.950256,614.239258 
	C563.002625,617.376953 560.892090,617.456970 558.532410,617.424316 
	C552.546631,617.341614 546.558655,617.330811 540.572632,617.395569 
	C537.884827,617.424622 536.640808,616.374634 536.656372,613.585693 
	C536.717651,602.610229 536.733032,591.633911 536.641663,580.658875 
	C536.615662,577.541504 538.116760,576.625244 540.932434,576.666687 
	C546.419067,576.747375 551.908508,576.752502 557.395081,576.670898 
	C560.208618,576.629028 561.845764,577.674683 561.935486,580.637085 
	C562.033813,583.885864 559.981445,584.379639 557.351990,584.400574 
	C553.238525,584.433411 549.084534,584.029785 545.106628,584.958008 
	C543.820801,591.503235 544.165527,591.955078 550.189758,592.005798 
	C552.185181,592.022583 554.180847,592.084534 556.175659,592.060181 
	C559.441345,592.020386 560.385010,593.729858 560.360413,596.799194 
	C560.334534,600.017700 558.764893,600.668335 555.971802,600.642395 
	C552.495056,600.610107 549.014771,600.942444 545.536865,601.132996 
	C545.397705,601.140625 545.267273,601.307861 545.058105,601.452271 
	C544.017639,602.721497 544.620178,604.245972 544.637451,606.054016 
z"/>
<path fill="#000000" opacity="1.000000" stroke="none" 
	d="
M587.527954,584.530884 
	C591.372864,595.354065 595.089722,605.806091 598.810486,616.269043 
	C592.200745,618.368225 590.911987,618.078003 589.291809,612.728516 
	C587.899719,608.132019 584.740784,608.227783 581.114929,608.275208 
	C577.677307,608.320251 574.301147,608.092163 573.433594,612.635376 
	C572.353943,618.290222 568.566711,617.926025 564.388672,616.765381 
	C563.576843,613.879028 565.334839,611.794617 566.125549,609.506104 
	C569.221985,600.544312 572.371582,591.600281 575.586670,582.680420 
	C576.557800,579.986206 576.840759,576.811462 581.054688,576.633667 
	C585.666077,576.439087 585.760437,579.972778 586.945007,582.733582 
	C587.140869,583.190002 587.250427,583.683411 587.527954,584.530884 
M580.993408,591.761597 
	C579.670776,593.999756 578.387939,596.249756 578.709900,599.084778 
	C580.616760,600.096619 582.369568,600.261841 584.193481,598.969238 
	C583.825684,596.187866 583.183594,593.711121 580.993408,591.761597 
z"/>
<path fill="#000000" opacity="1.000000" stroke="none" 
	d="
M464.281616,583.814148 
	C468.201141,594.924500 472.001709,605.655029 475.874817,616.590454 
	C470.722137,618.095703 467.140869,617.921875 466.057800,612.516052 
	C465.143341,607.951721 461.692078,608.280640 458.310425,608.300781 
	C454.975525,608.320679 451.470673,607.798035 450.536438,612.433655 
	C449.460236,617.773743 445.919983,618.186279 440.909424,616.616882 
	C442.022461,610.721741 444.688690,605.374878 446.503479,599.790344 
	C448.453278,593.790222 450.681946,587.880615 452.799072,581.935120 
	C453.744904,579.278931 454.375702,576.599854 458.274200,576.609436 
	C462.223083,576.619202 462.696198,579.407043 463.648743,582.030029 
	C463.818878,582.498535 463.991302,582.966248 464.281616,583.814148 
M459.104401,599.819641 
	C461.627960,597.849182 461.513977,596.759766 458.202240,591.549438 
	C456.679688,593.031494 456.465332,595.060425 455.839600,596.901733 
	C455.002838,599.363953 456.500336,599.773376 459.104401,599.819641 
z"/>
<path fill="#000000" opacity="1.000000" stroke="none" 
	d="
M343.793884,602.894775 
	C346.525116,595.335083 349.165222,588.158569 351.725098,580.953491 
	C352.631104,578.403503 353.824768,576.645996 356.989319,576.650940 
	C360.074829,576.655762 360.892548,578.608704 361.704956,580.871643 
	C365.636230,591.821960 369.583221,602.766724 373.512360,613.717834 
	C373.840485,614.632324 374.422302,615.538574 373.861389,616.570190 
	C367.620789,618.375977 366.615112,618.129517 364.761108,612.322021 
	C363.450012,608.215149 360.637604,608.115906 357.353210,608.306091 
	C354.036987,608.498047 349.971283,607.171570 348.937012,612.198242 
	C347.864380,617.411499 344.585602,618.263794 339.562744,616.743530 
	C340.001099,611.989319 342.328003,607.758118 343.793884,602.894775 
M355.934784,599.832581 
	C360.551727,598.917847 360.651337,597.879028 356.476257,589.900696 
	C356.087311,593.595520 352.109161,596.066650 355.934784,599.832581 
z"/>
<path fill="#000000" opacity="1.000000" stroke="none" 
	d="
M682.966370,590.946533 
	C685.124756,587.583557 687.273621,584.388977 688.796631,580.919739 
	C690.922302,576.077759 694.238953,575.912659 698.609436,577.546143 
	C698.759033,580.804443 696.634949,582.911926 695.265503,585.254089 
	C690.294067,593.756348 685.416199,602.213074 687.240845,612.724915 
	C687.897217,616.506470 685.812866,617.664124 682.256958,617.415222 
	C679.693604,617.235779 678.418701,616.061707 678.837158,613.673340 
	C680.807434,602.429749 675.494080,593.440430 670.127563,584.397949 
	C668.897522,582.325317 667.263977,580.305237 667.261169,577.409668 
	C671.724548,575.855103 674.844543,576.638306 676.994202,581.189636 
	C678.597656,584.584717 679.713196,588.353088 682.966370,590.946533 
z"/>
<path fill="#000000" opacity="1.000000" stroke="none" 
	d="
M657.747314,584.717773 
	C655.327087,587.181213 656.323914,589.971619 656.264771,592.534180 
	C656.114868,599.028320 656.161011,605.528931 656.236389,612.025696 
	C656.272827,615.168396 656.007935,617.524292 651.788513,617.459229 
	C647.807800,617.397827 647.647766,615.122864 647.663940,612.228333 
	C647.705750,604.731323 647.481323,597.226929 647.749023,589.739319 
	C647.896423,585.615601 646.551514,583.911316 642.358704,584.322937 
	C639.873840,584.566956 637.086731,584.698547 636.961182,580.938843 
	C636.850098,577.611267 638.815613,576.664856 641.754456,576.683411 
	C648.251831,576.724426 654.750000,576.727722 661.247070,576.668274 
	C664.115540,576.642029 666.170105,577.383850 666.263672,580.737976 
	C666.370667,584.572632 663.675110,584.335083 661.125305,584.383728 
	C660.127991,584.402710 659.132080,584.499207 657.747314,584.717773 
z"/>
<path fill="#000000" opacity="1.000000" stroke="none" 
	d="
M424.344360,605.996033 
	C424.323944,610.649292 424.488861,614.814636 424.241119,618.955322 
	C423.848358,625.519958 419.831879,630.037537 414.452301,630.286560 
	C412.607239,630.372009 410.571960,630.482239 410.225159,627.955688 
	C409.952820,625.971558 409.751312,623.619873 412.152069,622.885864 
	C415.792542,621.772827 415.788696,619.034607 415.797180,616.144531 
	C415.829956,605.010742 415.838257,593.876770 415.913055,582.743286 
	C415.928314,580.472778 415.563477,577.813171 418.904327,577.380859 
	C422.060944,576.972473 424.473114,577.339233 424.383148,581.567993 
	C424.213501,589.541016 424.340698,597.520386 424.344360,605.996033 
z"/>
<path fill="#000000" opacity="1.000000" stroke="none" 
	d="
M429.734131,609.911743 
	C429.732605,600.271362 429.786011,591.120972 429.703369,581.971802 
	C429.673431,578.654602 430.440430,576.601257 434.396423,576.628601 
	C438.490936,576.656982 438.326996,579.221680 438.321991,581.994324 
	C438.304871,591.476990 438.409576,600.960876 438.271973,610.441528 
	C438.228943,613.404724 439.778137,617.487854 434.049713,617.452148 
	C428.414276,617.416992 430.064178,613.415710 429.734131,609.911743 
z"/>
<path fill="#000000" opacity="1.000000" stroke="none" 
	d="
M506.984192,666.802063 
	C502.284210,670.195618 498.523895,669.950073 496.424469,666.456421 
	C494.360199,663.021240 495.751251,658.364563 499.333435,656.655823 
	C501.919098,655.422302 504.299042,655.968872 506.233734,657.829346 
	C508.851685,660.346802 508.919800,663.356506 506.984192,666.802063 
z"/>
</svg>